<?xml version="1.0" encoding="utf-8"?>
<!-- Generator: Adobe Illustrator 27.2.0, SVG Export Plug-In . SVG Version: 6.00 Build 0)  -->
<svg version="1.1" id="Ebene_1" xmlns="http://www.w3.org/2000/svg" xmlns:xlink="http://www.w3.org/1999/xlink" x="0px" y="0px"
	 viewBox="0 0 82.8 89.3" style="enable-background:new 0 0 82.8 89.3;" xml:space="preserve">
<style type="text/css">
	.st0{fill:#002642;}
	.st1{fill:#0BA1E2;}
</style>
<g>
	<path class="st0" d="M50.8,25.8H31.4c-2.1,0-4,1.2-5.1,3l-9.7,17.3c-1,1.9-1,4.2,0,6l9.7,17.3c1,1.9,3,3,5.1,3h19.4
		c2.1,0,4-1.2,5.1-3l9.7-17.3c1-1.9,1-4.2,0-6l-9.7-17.3C54.8,27,52.9,25.8,50.8,25.8"/>
</g>
<g>
	<path class="st0" d="M69.4,17.2h-7.2c-0.8,0-1.5,0.4-1.9,1.1l-3.6,6.4c-0.4,0.7-0.4,1.5,0,2.2l3.6,6.4c0.4,0.7,1.1,1.1,1.9,1.1h7.2
		c0.8,0,1.5-0.4,1.9-1.1l3.6-6.4c0.4-0.7,0.4-1.5,0-2.2l-3.6-6.4C70.9,17.6,70.2,17.2,69.4,17.2"/>
</g>
<g>
	<path class="st0" d="M56.9,6.7h-5.2c-0.6,0-1.1,0.3-1.4,0.8l-2.6,4.7c-0.3,0.5-0.3,1.1,0,1.6l2.6,4.7c0.3,0.5,0.8,0.8,1.4,0.8h5.2
		c0.6,0,1.1-0.3,1.4-0.8l2.6-4.7c0.3-0.5,0.3-1.1,0-1.6l-2.6-4.7C58,7,57.5,6.7,56.9,6.7"/>
</g>
<g>
	<path class="st0" d="M20.2,64.5H13c-0.8,0-1.5,0.4-1.9,1.1L7.6,72c-0.4,0.7-0.4,1.5,0,2.2l3.6,6.4c0.4,0.7,1.1,1.1,1.9,1.1h7.2
		c0.8,0,1.5-0.4,1.9-1.1l3.6-6.4c0.4-0.7,0.4-1.5,0-2.2L22,65.6C21.6,64.9,20.9,64.5,20.2,64.5"/>
</g>
<g>
	<path class="st1" d="M24.5,56.2L24.5,56.2c0.4,0.3,0.5,0.8,0.2,1.1l-0.4,0.5c-0.3,0.3-0.8,0.4-1.1,0.1c-0.4-0.3-0.5-0.8-0.2-1.1
		l0.4-0.5C23.6,56,24.1,55.9,24.5,56.2"/>
</g>
<g>
	<path class="st1" d="M26.3,57.5L26.3,57.5c0.4,0.3,0.5,0.8,0.2,1.1l-0.4,0.5c-0.3,0.3-0.8,0.4-1.1,0.1c-0.4-0.3-0.5-0.8-0.2-1.1
		l0.4-0.5C25.5,57.3,26,57.2,26.3,57.5"/>
</g>
<g>
	<path class="st1" d="M28.2,58.9L28.2,58.9c0.4,0.3,0.5,0.8,0.2,1.1L28,60.5c-0.3,0.3-0.8,0.4-1.1,0.1c-0.4-0.3-0.5-0.8-0.2-1.1
		l0.4-0.5C27.3,58.7,27.8,58.6,28.2,58.9"/>
</g>
<g>
	<path class="st1" d="M24.9,43.1c1.4-1.4,3.6-1.3,5.1,0.1c1.2,1.1,1.5,2.8,0.8,4.2l3.8,2.8c1.4-1.4,3.6-1.3,5.1,0.1
		c1.2,1.1,1.5,2.8,0.8,4.2l3.7,2.7c2.4-3.4,1.5-8.3-2.1-10.9L32.2,39c-3.6-2.6-8.5-2-11,1.4L24.9,43.1z"/>
</g>
<g>
	<path class="st1" d="M39.9,55.3c-1.4,1.4-3.6,1.3-5.1-0.1c-1.2-1.1-1.5-2.8-0.8-4.2l-3.8-2.8c-1.4,1.4-3.6,1.3-5.1-0.1
		c-1.2-1.1-1.5-2.8-0.8-4.2l-3.7-2.7c-2.4,3.4-1.5,8.3,2.1,10.9l9.9,7.2c3.6,2.6,8.5,2,11-1.4L39.9,55.3z"/>
</g>
<g>
	<path class="st1" d="M48.9,57.9c2.7-2.6,3.9-5.4,3.7-8.4c-0.3-3.8-3-7.7-8.3-12c0-0.8-0.3-1.6-0.9-2.2l1.4-1.6
		c0.9,0.1,1.7-0.6,1.7-1.6c0-0.9-0.7-1.7-1.7-1.8c-0.9-0.1-1.7,0.6-1.7,1.6c0,0.2,0,0.4,0.1,0.6l-1.1,1.8c-0.8-0.3-1.6-0.4-2.3-0.1
		c-5.7-3.7-10.3-5.1-14-4.2c-0.1,0-0.1,0-0.2,0.1l-1.7,3c0.7-0.5,1.6-0.9,2.4-1.1c3.6-0.9,8.3,0.9,14.6,5.4
		c6.2,4.5,9.4,8.5,9.7,12.2c0.2,2.6-1,5.1-3.8,7.5c-1.2,1-1.4,1.3-2,2.7c-1.4,3.5-4,6.5-6.7,7.1c-3.7,0.9-8.7-0.8-14.8-5.2
		c-0.9-0.6-1.6-1.3-2.3-1.9l2.4,4.3c6.1,4.2,11.3,5.8,15.4,4.8c2.8-0.7,5.7-3.5,7.3-6.7c1.1,0,2-0.5,2.6-1.3
		C49.2,60.1,49.3,58.9,48.9,57.9"/>
</g>
</svg>
