<?xml version="1.0" encoding="UTF-8" standalone="no"?>
<!-- Generator: Adobe Illustrator 27.0.0, SVG Export Plug-In . SVG Version: 6.00 Build 0)  -->

<svg
   xmlns:dc="http://purl.org/dc/elements/1.1/"
   xmlns:cc="http://creativecommons.org/ns#"
   xmlns:rdf="http://www.w3.org/1999/02/22-rdf-syntax-ns#"
   xmlns:svg="http://www.w3.org/2000/svg"
   xmlns="http://www.w3.org/2000/svg"
   xmlns:sodipodi="http://sodipodi.sourceforge.net/DTD/sodipodi-0.dtd"
   xmlns:inkscape="http://www.inkscape.org/namespaces/inkscape"
   version="1.1"
   id="Layer_1"
   x="0px"
   y="0px"
   viewBox="0 0 640.00001 640"
   xml:space="preserve"
   sodipodi:docname="AMD_Threadripper_Pro_Lockup_RGB_Blk.svg"
   width="640"
   height="640"
   inkscape:version="0.92.5 (2060ec1f9f, 2020-04-08)"><metadata
   id="metadata77"><rdf:RDF><cc:Work
       rdf:about=""><dc:format>image/svg+xml</dc:format><dc:type
         rdf:resource="http://purl.org/dc/dcmitype/StillImage" /><dc:title /></cc:Work></rdf:RDF></metadata><defs
   id="defs75" /><sodipodi:namedview
   pagecolor="#ffffff"
   bordercolor="#666666"
   borderopacity="1"
   objecttolerance="10"
   gridtolerance="10"
   guidetolerance="10"
   inkscape:pageopacity="0"
   inkscape:pageshadow="2"
   inkscape:window-width="2560"
   inkscape:window-height="1376"
   id="namedview73"
   showgrid="false"
   inkscape:zoom="0.87598521"
   inkscape:cx="-167.7826"
   inkscape:cy="179.37638"
   inkscape:window-x="1920"
   inkscape:window-y="27"
   inkscape:window-maximized="1"
   inkscape:current-layer="Layer_1" />
<g
   id="g70"
   transform="matrix(1.4239294,0,0,1.4239294,19.406721,241.83749)">
	<g
   id="g8">
		<path
   d="m 1.94,119.87 v 7.74 H 0 v -17.43 h 14.12 c 1.84,0 3.31,1.49 3.31,3.31 v 3.06 c 0,1.82 -1.47,3.31 -3.31,3.31 H 1.94 Z m 0,-7.75 v 5.8 h 12.18 c 0.75,0 1.37,-0.62 1.37,-1.37 v -3.04 c 0,-0.77 -0.62,-1.39 -1.37,-1.39 z"
   id="path2"
   inkscape:connector-curvature="0" />
		<path
   d="m 39.05,127.61 h -2.24 l -4.46,-7.74 h -9.74 v 7.74 h -1.94 v -17.43 h 14.12 c 1.82,0 3.31,1.49 3.31,3.31 v 3.06 c 0,1.82 -1.49,3.31 -3.31,3.31 h -0.2 z M 22.61,112.12 v 5.8 h 12.18 c 0.75,0 1.37,-0.62 1.37,-1.37 v -3.04 c 0,-0.77 -0.62,-1.39 -1.37,-1.39 H 22.61 Z"
   id="path4"
   inkscape:connector-curvature="0" />
		<path
   d="m 55.91,110.18 c 1.82,0 3.31,1.49 3.31,3.31 v 10.81 c 0,1.82 -1.49,3.31 -3.31,3.31 H 45.1 c -1.82,0 -3.31,-1.49 -3.31,-3.31 v -10.81 c 0,-1.82 1.49,-3.31 3.31,-3.31 z m 1.37,3.31 c 0,-0.75 -0.62,-1.37 -1.37,-1.37 H 45.1 c -0.75,0 -1.37,0.62 -1.37,1.37 v 10.81 c 0,0.75 0.62,1.37 1.37,1.37 h 10.81 c 0.75,0 1.37,-0.62 1.37,-1.37 z"
   id="path6"
   inkscape:connector-curvature="0" />
	</g>
	<g
   id="g20">
		<g
   id="g18">
			<g
   id="XMLID_00000054261887759305762340000007786802640635064252_">
				<g
   id="XMLID_00000144295652206692179930000000313640730864342658_">
					<path
   id="XMLID_00000120553588260841402290000008779108645429090987_"
   d="M 49.53,46.96 H 37.83 L 34.25,38.33 H 14.76 L 11.5,46.96 H 0 L 17.57,3.37 H 30.16 Z M 24.03,13.78 17.64,30.72 h 13.42 z"
   inkscape:connector-curvature="0" />
					<path
   id="XMLID_00000115492367008569876380000004417320222775751082_"
   d="m 92.02,3.37 h 9.46 V 46.96 H 90.61 V 19.73 L 78.85,33.4 H 77.19 L 65.43,19.73 V 46.96 H 54.56 V 3.37 h 9.46 l 14,16.17 z"
   inkscape:connector-curvature="0" />
					<path
   id="XMLID_00000101813185561532026090000000424301970855041928_"
   d="m 129.01,3.37 c 15.91,0 24.09,9.9 24.09,21.86 0,12.53 -7.92,21.73 -25.31,21.73 H 109.77 V 3.37 Z m -8.38,35.6 h 7.09 c 10.93,0 14.19,-7.41 14.19,-13.81 0,-7.48 -4.03,-13.8 -14.32,-13.8 h -6.96 z"
   inkscape:connector-curvature="0" />
				</g>
				<g
   id="XMLID_00000049213571062428060240000015974422439474722947_">
					<polygon
   id="XMLID_00000100380264204424614640000000992330976355342248_"
   points="197.19,36.18 197.19,13.7 174.72,13.7 161.01,0 210.89,0 210.89,49.88 " />
					<polygon
   id="XMLID_00000149384356619154414800000012971396637224134036_"
   points="194.44,36.19 174.7,36.19 174.7,16.45 160.59,30.55 160.59,50.3 180.34,50.3 " />
				</g>
			</g>
		</g>
	</g>
	<g
   id="g68">
		<path
   d="m 209.59,68.75 h -24.41 v 6.1 h 23.97 c 0.24,0 0.43,0.19 0.43,0.43 V 92.7 c 0,0.24 -0.19,0.43 -0.43,0.43 H 191.28 V 80.95 h -6.1 v 18.3 h 24.41 c 3.37,0 6.1,-2.73 6.1,-6.1 v -18.3 c 0,-3.37 -2.73,-6.1 -6.1,-6.1 z"
   id="path22"
   inkscape:connector-curvature="0" />
		<path
   d="m 301.05,68.77 h -24.39 v 6.1 h 23.96 c 0.24,0 0.43,0.19 0.43,0.43 v 5.23 c 0,0.24 -0.19,0.43 -0.43,0.43 h -23.96 v 0 18.29 h 6.1 v -12.2 h 18.29 c 3.37,0 6.1,-2.73 6.1,-6.1 v -6.1 c 0,-3.35 -2.73,-6.08 -6.1,-6.08 z"
   id="path24"
   inkscape:connector-curvature="0" />
		<path
   d="m 338.54,68.77 h -24.39 v 6.1 h 23.96 c 0.24,0 0.43,0.19 0.43,0.43 v 5.23 c 0,0.24 -0.19,0.43 -0.43,0.43 h -23.96 v 0 18.29 h 6.1 v -12.2 h 18.29 c 3.37,0 6.1,-2.73 6.1,-6.1 v -6.1 c 0,-3.35 -2.73,-6.08 -6.1,-6.08 z"
   id="path26"
   inkscape:connector-curvature="0" />
		<g
   id="g30">
			<path
   d="m 81,87.06 h 11.25 l 7.04,12.2 h 7.04 l -7.04,-12.2 v 0 c 3.37,0 6.1,-2.73 6.1,-6.1 v -6.1 c 0,-3.37 -2.73,-6.1 -6.1,-6.1 H 74.9 v 6.1 h 23.96 c 0.24,0 0.43,0.19 0.43,0.43 v 5.23 c 0,0.24 -0.19,0.43 -0.43,0.43 H 74.9 V 99.24 H 81 Z"
   id="path28"
   inkscape:connector-curvature="0" />
		</g>
		<g
   id="g34">
			<path
   d="m 395.82,87.06 h 11.25 l 7.04,12.2 h 7.04 l -7.04,-12.2 v 0 c 3.37,0 6.1,-2.73 6.1,-6.1 v -6.1 c 0,-3.37 -2.73,-6.1 -6.1,-6.1 h -24.39 v 6.1 h 23.96 c 0.24,0 0.43,0.19 0.43,0.43 v 5.23 c 0,0.24 -0.19,0.43 -0.43,0.43 h -23.96 v 18.29 h 6.1 z"
   id="path32"
   inkscape:connector-curvature="0" />
		</g>
		<g
   id="g38">
			<path
   d="m 229.91,87.06 h 11.25 l 7.04,12.2 h 7.04 l -7.04,-12.2 v 0 c 3.37,0 6.1,-2.73 6.1,-6.1 v -6.1 c 0,-3.37 -2.73,-6.1 -6.1,-6.1 h -24.39 v 6.1 h 23.96 c 0.24,0 0.43,0.19 0.43,0.43 v 5.23 c 0,0.24 -0.19,0.43 -0.43,0.43 h -23.96 v 18.29 h 6.1 z"
   id="path36"
   inkscape:connector-curvature="0" />
		</g>
		<g
   id="g46">
			<rect
   x="113.53"
   y="68.769997"
   width="30.469999"
   height="6.0999999"
   id="rect40" />
			<g
   id="g44">
				<polygon
   points="113.53,99.26 144,99.26 144,93.16 119.63,93.16 119.63,87.06 144,87.06 144,80.97 113.53,80.97 "
   id="polygon42" />
			</g>
		</g>
		<g
   id="g54">
			<rect
   x="351.09"
   y="68.769997"
   width="30.469999"
   height="6.0999999"
   id="rect48" />
			<g
   id="g52">
				<polygon
   points="351.09,99.26 381.57,99.26 381.57,93.16 357.19,93.16 357.19,87.06 381.57,87.06 381.57,80.97 351.09,80.97 "
   id="polygon50" />
			</g>
		</g>
		<polygon
   points="0,68.77 0,74.87 12.12,74.87 12.12,99.25 18.22,99.25 18.22,74.87 30.48,74.87 30.48,68.77 "
   id="polygon56" />
		<rect
   x="250.25"
   y="80.959999"
   transform="rotate(-90,265.48805,84.01095)"
   width="30.48"
   height="6.0999999"
   id="rect58" />
		<g
   id="g62">
			<polygon
   points="36.27,99.25 42.37,99.25 42.37,87.06 60.66,87.06 60.66,99.25 66.76,99.25 66.76,68.77 60.66,68.77 60.66,80.96 42.37,80.96 42.37,68.77 36.27,68.77 "
   id="polygon60" />
		</g>
		<g
   id="g66">
			<path
   d="m 157.51,93.16 h 13.94 l 2.64,6.1 h 6.65 L 167.53,68.77 h -6.1 l -13.21,30.49 h 6.65 z m 6.96,-16.09 4.33,9.99 h -8.65 z"
   id="path64"
   inkscape:connector-curvature="0" />
		</g>
	</g>
</g>
</svg>