<?xml version="1.0" encoding="UTF-8" standalone="no"?>
<svg
   xmlns:sketch="http://www.bohemiancoding.com/sketch/ns"
   xmlns:dc="http://purl.org/dc/elements/1.1/"
   xmlns:cc="http://creativecommons.org/ns#"
   xmlns:rdf="http://www.w3.org/1999/02/22-rdf-syntax-ns#"
   xmlns:svg="http://www.w3.org/2000/svg"
   xmlns="http://www.w3.org/2000/svg"
   xmlns:sodipodi="http://sodipodi.sourceforge.net/DTD/sodipodi-0.dtd"
   xmlns:inkscape="http://www.inkscape.org/namespaces/inkscape"
   role="img"
   viewBox="0.03 -8.96 640.00001 640.00002"
   version="1.1"
   id="svg28"
   sodipodi:docname="kubernetes-jupyterhub.svg"
   inkscape:version="0.92.5 (2060ec1f9f, 2020-04-08)"
   width="640"
   height="640">
  <metadata
     id="metadata32">
    <rdf:RDF>
      <cc:Work
         rdf:about="">
        <dc:format>image/svg+xml</dc:format>
        <dc:type
           rdf:resource="http://purl.org/dc/dcmitype/StillImage" />
        <dc:title></dc:title>
      </cc:Work>
    </rdf:RDF>
  </metadata>
  <sodipodi:namedview
     pagecolor="#ffffff"
     bordercolor="#666666"
     borderopacity="1"
     objecttolerance="10"
     gridtolerance="10"
     guidetolerance="10"
     inkscape:pageopacity="0"
     inkscape:pageshadow="2"
     inkscape:window-width="2560"
     inkscape:window-height="1376"
     id="namedview30"
     showgrid="false"
     inkscape:zoom="0.8356053"
     inkscape:cx="-37.870792"
     inkscape:cy="327.82182"
     inkscape:window-x="1920"
     inkscape:window-y="27"
     inkscape:window-maximized="1"
     inkscape:current-layer="svg28" />
  <defs
     id="defs4">
    <style
       id="style2">.cls-1{fill:#fff}.cls-2{fill:#326ce5}</style>
  </defs>
  <g
     id="g1026"
     transform="matrix(1.0546799,0,0,1.0546799,37.115242,549.47694)">
    <path
       style="fill:#ffffff"
       inkscape:connector-curvature="0"
       id="path18"
       class="cls-1"
       d="m -24.00293,-208.09443 h 10.619 v 8.432 h -10.62 z" />
    <path
       style="fill:#326ce5"
       inkscape:connector-curvature="0"
       id="path20"
       class="cls-2"
       d="m 100.16207,-215.03943 a 3.59,3.59 0 0 0 -0.855,-0.065 3.685,3.685 0 0 0 -1.425,0.37 3.725,3.725 0 0 0 -1.803,4.825 l -0.026,0.037 8.528,20.603 a 43.53,43.53 0 0 0 17.595,-22.102 l -21.976,-3.714 z m -34.194,2.92 a 3.72,3.72 0 0 0 -3.568,-2.894 3.656,3.656 0 0 0 -0.733,0.065 l -0.037,-0.045 -21.785,3.698 a 43.695,43.695 0 0 0 17.54,21.946 l 8.442,-20.399 -0.066,-0.08 a 3.683,3.683 0 0 0 0.207,-2.291 z m 18.245,8 a 3.718,3.718 0 0 0 -6.557,0.008 h -0.018 l -10.713,19.372 a 43.637,43.637 0 0 0 23.815,1.225 q 2.197,-0.5 4.292,-1.199 l -10.738,-19.407 z m 33.914,-45 -16.483,14.753 0.009,0.047 a 3.725,3.725 0 0 0 1.46,6.395 l 0.02,0.089 21.35,6.15 a 44.278,44.278 0 0 0 -6.356,-27.432 z m -30.623,1.653 a 3.725,3.725 0 0 0 5.913,2.84 l 0.065,0.028 18.036,-12.789 a 43.85,43.85 0 0 0 -25.287,-12.19 l 1.253,22.105 z m -19.1,2.922 a 3.72,3.72 0 0 0 5.904,-2.85 l 0.092,-0.044 1.253,-22.139 a 44.68,44.68 0 0 0 -4.501,0.775 43.467,43.467 0 0 0 -20.937,11.409 l 18.154,12.869 z m -9.678,16.728 a 3.72,3.72 0 0 0 1.462,-6.396 l 0.018,-0.087 -16.574,-14.825 a 43.454,43.454 0 0 0 -6.168,27.511 l 21.245,-6.13 z m 16.098,6.512 6.114,2.94 6.096,-2.933 1.514,-6.582 -4.219,-5.276 h -6.79 l -4.231,5.268 z" />
    <path
       style="fill:#326ce5"
       inkscape:connector-curvature="0"
       id="path22"
       class="cls-2"
       d="m 182.01207,-208.33843 -17.422,-75.675 a 13.602,13.602 0 0 0 -7.293,-9.073 l -70.521,-33.67 a 13.589,13.589 0 0 0 -11.705,0 l -70.5069996,33.688 a 13.598,13.598 0 0 0 -7.295,9.072 l -17.3940004,75.673 a 13.315,13.315 0 0 0 -0.004,5.81 13.505,13.505 0 0 0 0.491,1.718 13.101,13.101 0 0 0 1.343,2.726 c 0.239,0.365 0.491,0.72 0.765,1.064 l 48.804,60.678 c 0.213,0.264 0.448,0.505 0.681,0.75 a 13.423,13.423 0 0 0 2.574,2.133 13.924,13.924 0 0 0 3.857,1.677 13.298,13.298 0 0 0 3.43,0.473 h 0.759 l 77.504,-0.018 a 12.996,12.996 0 0 0 1.41,-0.083 13.47,13.47 0 0 0 1.989,-0.378 13.87,13.87 0 0 0 1.381,-0.442 c 0.353,-0.135 0.705,-0.27 1.045,-0.433 a 13.941,13.941 0 0 0 1.479,-0.822 13.304,13.304 0 0 0 3.237,-2.865 l 1.488,-1.85 47.299,-58.84 a 13.185,13.185 0 0 0 2.108,-3.785 13.67,13.67 0 0 0 0.5,-1.724 13.282,13.282 0 0 0 -0.004,-5.809 z m -73.147,29.432 a 14.515,14.515 0 0 0 0.703,1.703 3.314,3.314 0 0 0 -0.327,2.49 39.373,39.373 0 0 0 3.742,6.7 35.065,35.065 0 0 1 2.263,3.364 c 0.17,0.315 0.392,0.803 0.553,1.136 a 4.24,4.24 0 1 1 -7.63,3.607 c -0.161,-0.33 -0.385,-0.77 -0.522,-1.082 a 35.275,35.275 0 0 1 -1.225,-3.868 39.305,39.305 0 0 0 -2.896,-7.097 3.335,3.335 0 0 0 -2.154,-1.307 c -0.135,-0.233 -0.635,-1.149 -0.903,-1.623 a 54.617,54.617 0 0 1 -38.948,-0.1 l -0.955,1.731 a 3.429,3.429 0 0 0 -1.819,0.886 29.518,29.518 0 0 0 -3.268,7.582 34.898,34.898 0 0 1 -1.218,3.868 c -0.135,0.31 -0.361,0.744 -0.522,1.073 v 0.009 l -0.007,0.008 a 4.238,4.238 0 1 1 -7.619,-3.616 c 0.159,-0.335 0.372,-0.82 0.54,-1.135 a 35.178,35.178 0 0 1 2.262,-3.373 41.227,41.227 0 0 0 3.82,-6.866 4.188,4.188 0 0 0 -0.376,-2.387 l 0.768,-1.84 a 54.922,54.922 0 0 1 -24.338,-30.387 l -1.839,0.313 a 4.68,4.68 0 0 0 -2.428,-0.855 39.525,39.525 0 0 0 -7.356,2.165 35.585,35.585 0 0 1 -3.787,1.45 c -0.305,0.084 -0.745,0.168 -1.093,0.244 -0.028,0.01 -0.052,0.022 -0.08,0.029 a 0.603,0.603 0 0 1 -0.065,0.006 4.236,4.236 0 1 1 -1.874,-8.224 l 0.061,-0.015 0.037,-0.01 c 0.353,-0.083 0.805,-0.2 1.127,-0.262 a 35.268,35.268 0 0 1 4.05,-0.326 39.39,39.39 0 0 0 7.564,-1.242 5.835,5.835 0 0 0 1.814,-1.83 l 1.767,-0.516 a 54.613,54.613 0 0 1 8.613,-38.073 l -1.353,-1.206 a 4.688,4.688 0 0 0 -0.848,-2.436 39.366,39.366 0 0 0 -6.277,-4.41 35.251,35.251 0 0 1 -3.499,-2.046 c -0.256,-0.191 -0.596,-0.478 -0.874,-0.704 l -0.063,-0.044 a 4.473,4.473 0 0 1 -1.038,-6.222 4.066,4.066 0 0 1 3.363,-1.488 5.03,5.03 0 0 1 2.942,1.11 c 0.287,0.225 0.68,0.526 0.935,0.745 a 35.253,35.253 0 0 1 2.78,2.95 39.384,39.384 0 0 0 5.69,5.142 3.333,3.333 0 0 0 2.507,0.243 q 0.754,0.55 1.522,1.082 a 54.289,54.289 0 0 1 27.577,-15.754 55.052,55.052 0 0 1 7.63,-1.173 l 0.1,-1.784 a 4.601,4.601 0 0 0 1.37,-2.184 39.476,39.476 0 0 0 -0.47,-7.654 35.468,35.468 0 0 1 -0.576,-4.014 c -0.011,-0.307 0.006,-0.731 0.01,-1.081 0,-0.04 -0.01,-0.079 -0.01,-0.118 a 4.242,4.242 0 1 1 8.441,-0.004 c 0,0.37 0.022,0.861 0.009,1.2 a 35.111,35.111 0 0 1 -0.579,4.013 39.533,39.533 0 0 0 -0.478,7.656 3.344,3.344 0 0 0 1.379,2.11 c 0.015,0.305 0.065,1.323 0.102,1.884 a 55.309,55.309 0 0 1 35.032,16.927 l 1.606,-1.147 a 4.69,4.69 0 0 0 2.56,-0.278 39.53,39.53 0 0 0 5.69,-5.148 35.004,35.004 0 0 1 2.787,-2.95 c 0.259,-0.222 0.65,-0.52 0.936,-0.746 a 4.242,4.242 0 1 1 5.258,6.598 c -0.283,0.229 -0.657,0.548 -0.929,0.75 a 35.096,35.096 0 0 1 -3.507,2.046 39.495,39.495 0 0 0 -6.277,4.41 3.337,3.337 0 0 0 -0.792,2.39 c -0.235,0.216 -1.06,0.947 -1.497,1.343 a 54.837,54.837 0 0 1 8.792,37.983 l 1.704,0.496 a 4.745,4.745 0 0 0 1.82,1.831 39.464,39.464 0 0 0 7.568,1.245 35.64,35.64 0 0 1 4.046,0.324 c 0.355,0.065 0.868,0.207 1.23,0.29 a 4.236,4.236 0 1 1 -1.878,8.223 l -0.061,-0.008 c -0.028,-0.007 -0.054,-0.022 -0.083,-0.029 -0.348,-0.076 -0.785,-0.152 -1.09,-0.232 a 35.14,35.14 0 0 1 -3.785,-1.462 39.477,39.477 0 0 0 -7.363,-2.165 3.337,3.337 0 0 0 -2.362,0.877 q -0.9,-0.171 -1.804,-0.316 a 54.92,54.92 0 0 1 -24.328,30.605 z" />
    <path
       style="fill:#ffffff"
       inkscape:connector-curvature="0"
       id="path24"
       class="cls-1"
       d="m 191.21107,-206.39743 -19.007,-82.561 a 14.838,14.838 0 0 0 -7.958,-9.9 l -76.935,-36.73 a 14.825,14.825 0 0 0 -12.771,0 l -76.9279996,36.752 a 14.838,14.838 0 0 0 -7.9610004,9.895 l -18.974,82.565 a 14.668,14.668 0 0 0 1.995,11.185 c 0.261,0.4 0.538,0.788 0.838,1.162 l 53.246,66.205 a 14.98,14.98 0 0 0 11.499,5.487 l 85.387,-0.02 a 14.986,14.986 0 0 0 11.5,-5.48 l 53.227,-66.211 a 14.72,14.72 0 0 0 2.842,-12.347 z m -9.197,3.866 a 13.677,13.677 0 0 1 -0.498,1.723 13.184,13.184 0 0 1 -2.11,3.785 l -47.299,58.838 -1.486,1.852 a 13.305,13.305 0 0 1 -3.24,2.865 13.943,13.943 0 0 1 -1.474,0.822 q -0.513,0.237 -1.045,0.431 a 13.865,13.865 0 0 1 -1.383,0.444 13.472,13.472 0 0 1 -1.989,0.379 12.988,12.988 0 0 1 -1.41,0.082 l -77.504,0.018 h -0.76 a 13.298,13.298 0 0 1 -3.429,-0.472 13.924,13.924 0 0 1 -3.855,-1.678 13.423,13.423 0 0 1 -2.576,-2.132 c -0.233,-0.246 -0.468,-0.487 -0.68,-0.75 l -48.805,-60.679 q -0.408,-0.514 -0.765,-1.066 a 13.102,13.102 0 0 1 -1.343,-2.726 13.506,13.506 0 0 1 -0.491,-1.719 13.315,13.315 0 0 1 0.004,-5.809 l 17.3940004,-75.675 a 13.598,13.598 0 0 1 7.295,-9.07 l 70.5079996,-33.686 a 13.59,13.59 0 0 1 11.705,0 l 70.519,33.67 a 13.602,13.602 0 0 1 7.293,9.073 l 17.422,75.675 a 13.282,13.282 0 0 1 0.002,5.807 z" />
    <path
       style="fill:#ffffff"
       inkscape:connector-curvature="0"
       id="path26"
       class="cls-1"
       d="m 151.61807,-214.39943 c -0.36,-0.083 -0.874,-0.225 -1.227,-0.29 a 35.635,35.635 0 0 0 -4.046,-0.326 39.464,39.464 0 0 1 -7.57,-1.242 4.745,4.745 0 0 1 -1.82,-1.832 l -1.704,-0.496 a 54.837,54.837 0 0 0 -8.79,-37.983 c 0.436,-0.396 1.262,-1.127 1.495,-1.342 a 3.338,3.338 0 0 1 0.792,-2.39 39.495,39.495 0 0 1 6.277,-4.41 35.097,35.097 0 0 0 3.507,-2.046 c 0.272,-0.202 0.644,-0.522 0.929,-0.75 a 4.242,4.242 0 1 0 -5.256,-6.6 c -0.288,0.227 -0.68,0.525 -0.936,0.747 a 35.007,35.007 0 0 0 -2.789,2.95 39.532,39.532 0 0 1 -5.69,5.148 4.69,4.69 0 0 1 -2.56,0.278 l -1.606,1.147 a 55.309,55.309 0 0 0 -35.032,-16.927 c -0.039,-0.561 -0.087,-1.577 -0.102,-1.884 a 3.344,3.344 0 0 1 -1.377,-2.11 39.534,39.534 0 0 1 0.478,-7.656 35.111,35.111 0 0 0 0.575,-4.012 c 0.013,-0.34 -0.007,-0.834 -0.007,-1.201 a 4.242,4.242 0 1 0 -8.441,0.004 c 0,0.04 0.009,0.078 0.01,0.118 -0.004,0.35 -0.021,0.774 -0.01,1.08 a 35.475,35.475 0 0 0 0.576,4.015 39.475,39.475 0 0 1 0.47,7.654 4.601,4.601 0 0 1 -1.37,2.182 l -0.1,1.786 a 55.055,55.055 0 0 0 -7.63,1.173 54.289,54.289 0 0 0 -27.574,15.754 q -0.77,-0.531 -1.526,-1.082 a 3.333,3.333 0 0 1 -2.506,-0.243 39.383,39.383 0 0 1 -5.69,-5.141 35.255,35.255 0 0 0 -2.777,-2.95 c -0.257,-0.22 -0.65,-0.52 -0.938,-0.749 a 5.03,5.03 0 0 0 -2.942,-1.11 4.066,4.066 0 0 0 -3.363,1.489 4.473,4.473 0 0 0 1.038,6.222 l 0.065,0.046 c 0.276,0.226 0.616,0.515 0.872,0.702 a 35.257,35.257 0 0 0 3.499,2.048 39.367,39.367 0 0 1 6.276,4.412 4.69,4.69 0 0 1 0.849,2.434 l 1.351,1.208 a 54.613,54.613 0 0 0 -8.611,38.073 l -1.767,0.514 a 5.835,5.835 0 0 1 -1.814,1.827 39.39,39.39 0 0 1 -7.565,1.247 35.264,35.264 0 0 0 -4.049,0.326 c -0.324,0.06 -0.774,0.174 -1.127,0.262 l -0.037,0.008 -0.06,0.018 a 4.236,4.236 0 1 0 1.875,8.224 l 0.063,-0.01 c 0.028,-0.006 0.052,-0.02 0.08,-0.025 0.348,-0.079 0.786,-0.163 1.092,-0.246 a 35.585,35.585 0 0 0 3.786,-1.451 39.527,39.527 0 0 1 7.358,-2.165 4.68,4.68 0 0 1 2.426,0.857 l 1.84,-0.315 a 54.922,54.922 0 0 0 24.34,30.387 l -0.769,1.84 a 4.188,4.188 0 0 1 0.377,2.387 41.227,41.227 0 0 1 -3.82,6.864 35.183,35.183 0 0 0 -2.263,3.372 c -0.168,0.318 -0.381,0.805 -0.542,1.138 a 4.238,4.238 0 1 0 7.621,3.616 l 0.007,-0.008 v -0.01 c 0.16,-0.33 0.387,-0.763 0.522,-1.072 a 34.9,34.9 0 0 0 1.218,-3.868 29.517,29.517 0 0 1 3.268,-7.582 3.43,3.43 0 0 1 1.819,-0.888 l 0.957,-1.73 a 54.617,54.617 0 0 0 38.946,0.099 c 0.268,0.478 0.768,1.392 0.9,1.623 a 3.335,3.335 0 0 1 2.155,1.31 39.306,39.306 0 0 1 2.898,7.096 35.274,35.274 0 0 0 1.225,3.868 c 0.137,0.312 0.36,0.751 0.522,1.082 a 4.24,4.24 0 1 0 7.63,-3.607 c -0.161,-0.333 -0.383,-0.82 -0.55,-1.136 a 35.062,35.062 0 0 0 -2.263,-3.364 39.373,39.373 0 0 1 -3.742,-6.7 3.314,3.314 0 0 1 0.324,-2.49 14.515,14.515 0 0 1 -0.703,-1.703 54.92,54.92 0 0 0 24.328,-30.605 c 0.546,0.087 1.497,0.253 1.806,0.316 a 3.337,3.337 0 0 1 2.36,-0.877 39.477,39.477 0 0 1 7.36,2.165 35.135,35.135 0 0 0 3.788,1.462 c 0.305,0.08 0.74,0.156 1.09,0.233 0.029,0.008 0.055,0.021 0.083,0.028 l 0.06,0.009 a 4.236,4.236 0 1 0 1.878,-8.224 z m -40.1,-42.987 -18.037,12.787 -0.063,-0.029 a 3.723,3.723 0 0 1 -5.913,-2.839 l -0.02,-0.009 -1.253,-22.104 a 43.85,43.85 0 0 1 25.285,12.194 z m -33.978,24.228 h 6.788 l 4.22,5.276 -1.513,6.581 -6.096,2.933 -6.114,-2.94 -1.516,-6.583 z m -6.386,-35.648 a 44.676,44.676 0 0 1 4.503,-0.774 l -1.255,22.137 -0.092,0.044 a 3.72,3.72 0 0 1 -5.904,2.852 l -0.035,0.02 -18.154,-12.872 a 43.467,43.467 0 0 1 20.937,-11.407 z m -27.52,19.681 16.574,14.823 -0.018,0.091 a 3.72,3.72 0 0 1 -1.462,6.394 l -0.017,0.072 -21.245,6.131 a 43.454,43.454 0 0 1 6.168,-27.51 z m 22.191,39.38 -8.441,20.396 a 43.696,43.696 0 0 1 -17.536,-21.948 l 21.783,-3.699 0.037,0.048 a 3.655,3.655 0 0 1 0.73,-0.065 3.72,3.72 0 0 1 3.364,5.185 z m 24.916,26.23 a 43.637,43.637 0 0 1 -23.815,-1.224 l 10.713,-19.372 h 0.018 a 3.725,3.725 0 0 1 6.557,-0.006 h 0.08 l 10.74,19.404 q -2.091,0.698 -4.293,1.199 z m 13.841,-5.752 -8.528,-20.605 0.026,-0.037 a 3.725,3.725 0 0 1 1.803,-4.823 3.685,3.685 0 0 1 1.425,-0.37 3.59,3.59 0 0 1 0.855,0.063 l 0.037,-0.046 21.977,3.714 a 43.53,43.53 0 0 1 -17.595,22.105 z m 19.903,-32.419 -21.352,-6.15 -0.02,-0.09 a 3.725,3.725 0 0 1 -1.46,-6.396 l -0.008,-0.043 16.482,-14.751 a 44.279,44.279 0 0 1 6.357,27.43 z" />
    <g
       transform="translate(546.7151,-736.69424)"
       id="Page-1"
       sketch:type="MSPage">
      <g
         id="Home---Desktop-Copy-2"
         transform="translate(-144,-2506)"
         sketch:type="MSArtboardGroup">
        <g
           id="Group"
           transform="translate(97,2493)"
           sketch:type="MSLayerGroup">
          <g
             id="Group-Copy-2"
             transform="translate(0,13)">
            <linearGradient
               id="Oval-7-Copy-2_1_"
               gradientUnits="userSpaceOnUse"
               x1="-623.03589"
               y1="1019.4888"
               x2="-624.03589"
               y2="1019.5301"
               gradientTransform="matrix(348.2257,0,0,-87.3639,217017.59,89569.312)">
              <stop
                 offset="0"
                 style="stop-color:#979797"
                 id="stop843" />
              <stop
                 offset="0.2293"
                 style="stop-color:#F1F1F1"
                 id="stop845" />
              <stop
                 offset="0.5129"
                 style="stop-color:#FFFFFF"
                 id="stop847" />
              <stop
                 offset="1"
                 style="stop-color:#979797"
                 id="stop849" />
            </linearGradient>
            <path
               style="fill:none;stroke:url(#Oval-7-Copy-2_1_);stroke-width:1.46500003"
               inkscape:connector-curvature="0"
               id="Oval-7-Copy-2"
               d="M -100,528.7 C -4.1,510 67.6,482.5 60.3,467.2 c -7.4,-15.3 -91,-12.6 -186.9,6.1 -95.9,18.7 -167.6,46.2 -160.3,61.5 7.3,15.3 91,12.6 186.9,-6.1 z" />
            <linearGradient
               id="Oval-7-Copy-3_1_"
               gradientUnits="userSpaceOnUse"
               x1="-623.03589"
               y1="1019.4888"
               x2="-624.03589"
               y2="1019.5301"
               gradientTransform="matrix(348.2257,0,0,-87.3639,217017.59,89569.312)">
              <stop
                 offset="0"
                 style="stop-color:#979797"
                 id="stop853" />
              <stop
                 offset="0.1977"
                 style="stop-color:#F1F1F1"
                 id="stop855" />
              <stop
                 offset="0.567"
                 style="stop-color:#FFFFFF"
                 id="stop857" />
              <stop
                 offset="1"
                 style="stop-color:#979797"
                 id="stop859" />
            </linearGradient>
            <path
               style="fill:none;stroke:url(#Oval-7-Copy-3_1_);stroke-width:1.46500003"
               inkscape:connector-curvature="0"
               id="Oval-7-Copy-3"
               d="M -100,528.7 C -4.1,510 67.6,482.5 60.3,467.2 c -7.4,-15.3 -91,-12.6 -186.9,6.1 -95.9,18.7 -167.6,46.2 -160.3,61.5 7.3,15.3 91,12.6 186.9,-6.1 z" />
            <path
               style="fill:#e46e2e"
               inkscape:connector-curvature="0"
               id="Fill-9"
               d="m -107,555.9 c -24.6,0 -46,-8.8 -57.2,-21.9 8.4,23.4 30.9,40.2 57.2,40.2 26.3,0 48.7,-16.8 57.2,-40.2 -11.2,13.1 -32.6,21.9 -57.2,21.9" />
            <path
               style="fill:#e46e2e"
               inkscape:connector-curvature="0"
               id="Fill-10"
               d="m -107.4,470.6 c 24.6,0 46,8.8 57.2,21.9 -8.4,-23.4 -30.9,-40.2 -57.2,-40.2 -26.3,0 -48.7,16.8 -57.2,40.2 11.2,-13.1 32.6,-21.9 57.2,-21.9" />
            <path
               style="fill:#767474"
               inkscape:connector-curvature="0"
               id="Fill-11"
               d="m -150.1,587.5 c -5.3,0.2 -9.7,-3.9 -10,-9.1 -0.2,-5.3 3.9,-9.7 9.1,-10 5.3,-0.2 9.7,3.9 10,9.1 0.2,5.3 -3.9,9.8 -9.1,10 z" />
            <path
               style="fill:#767474"
               inkscape:connector-curvature="0"
               id="Fill-12"
               d="m -157.5,463 c -3.3,0.1 -6.1,-2.4 -6.2,-5.7 -0.1,-3.3 2.4,-6.1 5.7,-6.2 3.3,-0.1 6.1,2.4 6.2,5.7 0.1,3.3 -2.4,6 -5.7,6.2 z" />
            <path
               style="fill:#767474"
               inkscape:connector-curvature="0"
               id="Fill-8"
               d="m -62.6,455.9 c -5.1,0.2 -9.4,-3.8 -9.7,-8.9 -0.2,-5.1 3.8,-9.5 8.9,-9.7 5.1,-0.2 9.4,3.8 9.7,8.9 0.2,5.1 -3.8,9.5 -8.9,9.7 z" />
            <g
               id="Group-Copy-_x2B_-hub"
               transform="translate(0,52)">
              <g
                 id="Group-Copy"
                 transform="translate(0.297974,4.567815)">
                <path
                   style="fill:#313940"
                   inkscape:connector-curvature="0"
                   id="Fill-1"
                   d="m -218.3,464.2 c 0,5.5 -0.4,7.3 -1.6,8.6 -1,1.1 -2.7,1.6 -4.6,1.8 l 0.4,3.3 c 2.2,0 5.3,-0.8 7.2,-2.6 2.1,-2.1 2.8,-5 2.8,-9.4 V 445 h -4.2 v 19.2" />
                <path
                   style="fill:#313940"
                   inkscape:connector-curvature="0"
                   id="Fill-2"
                   d="m -186.9,461.7 c 0,2.4 0,4.5 0.2,6.3 h -3.7 l -0.2,-3.8 h -0.1 c -1.1,1.9 -3.5,4.3 -7.7,4.3 -3.6,0 -8,-2 -8,-10.1 V 445 h 4.2 v 12.7 c 0,4.4 1.3,7.3 5.2,7.3 2.8,0 4.8,-1.9 5.5,-3.8 0.2,-0.6 0.4,-1.4 0.4,-2.1 V 445 h 4.2 v 16.7" />
                <path
                   style="fill:#313940"
                   inkscape:connector-curvature="0"
                   id="Fill-3"
                   d="m -178.9,452.5 c 0,-2.9 -0.1,-5.3 -0.2,-7.5 h 3.8 l 0.2,3.9 h 0.1 c 1.7,-2.8 4.4,-4.5 8.2,-4.5 5.6,0 9.8,4.7 9.8,11.7 0,8.3 -5.1,12.3 -10.5,12.3 -3.1,0 -5.7,-1.3 -7.1,-3.6 h -0.1 v 12.5 h -4.2 z m 4.1,6.1 c 0,0.6 0.1,1.2 0.2,1.7 0.8,2.9 3.3,4.9 6.3,4.9 4.4,0 7,-3.6 7,-8.9 0,-4.6 -2.4,-8.5 -6.9,-8.5 -2.9,0 -5.5,2 -6.4,5.2 -0.1,0.5 -0.3,1.1 -0.3,1.7 v 3.9 z" />
                <path
                   style="fill:#313940"
                   inkscape:connector-curvature="0"
                   id="Fill-4"
                   d="m -149.5,445 5.1,13.6 c 0.5,1.5 1.1,3.3 1.5,4.7 h 0.1 c 0.4,-1.4 0.9,-3.1 1.5,-4.8 l 4.6,-13.5 h 4.4 l -6.3,16.4 c -3,7.9 -5.1,11.9 -7.9,14.4 -2.1,1.8 -4.1,2.5 -5.2,2.7 l -1.1,-3.5 c 1.1,-0.3 2.4,-1 3.7,-2 1.1,-0.9 2.6,-2.5 3.5,-4.7 0.2,-0.4 0.3,-0.8 0.3,-1 0,-0.2 -0.1,-0.6 -0.3,-1.1 l -8.6,-21.2 h 4.7" />
                <path
                   style="fill:#313940"
                   inkscape:connector-curvature="0"
                   id="Fill-5"
                   d="m -121.3,438.4 v 6.6 h 6 v 3.2 h -6 v 12.4 c 0,2.8 0.8,4.5 3.2,4.5 1.1,0 1.9,-0.1 2.4,-0.3 l 0.2,3.1 c -0.8,0.3 -2.1,0.6 -3.7,0.6 -2,0 -3.5,-0.6 -4.5,-1.8 -1.2,-1.2 -1.6,-3.3 -1.6,-6 v -12.5 h -3.6 V 445 h 3.6 v -5.5 l 4,-1.1" />
                <path
                   style="fill:#313940"
                   inkscape:connector-curvature="0"
                   id="Fill-6"
                   d="m -107.5,457.3 c 0.1,5.7 3.7,8 7.9,8 3,0 4.8,-0.5 6.4,-1.2 l 0.7,3 c -1.5,0.7 -4,1.4 -7.7,1.4 -7.1,0 -11.4,-4.7 -11.4,-11.6 0,-6.9 4.1,-12.4 10.9,-12.4 7.6,0 9.6,6.6 9.6,10.8 0,0.9 -0.1,1.5 -0.1,1.9 h -16.3 z m 12.3,-3 c 0,-2.7 -1.1,-6.8 -5.8,-6.8 -4.3,0 -6.1,3.9 -6.5,6.8 z" />
                <path
                   style="fill:#313940"
                   inkscape:connector-curvature="0"
                   id="Fill-7"
                   d="m -84.9,452.2 c 0,-2.7 0,-5 -0.2,-7.2 h 3.7 l 0.1,4.5 h 0.2 c 1.1,-3.1 3.6,-5 6.4,-5 0.5,0 0.8,0 1.2,0.1 v 3.9 c -0.4,-0.1 -0.9,-0.1 -1.4,-0.1 -3,0 -5.1,2.2 -5.6,5.4 -0.1,0.6 -0.2,1.2 -0.2,1.9 V 468 h -4.2 v -15.8" />
              </g>
              <path
                 style="fill:#999999"
                 inkscape:connector-curvature="0"
                 id="hub"
                 d="m -65.6,472.5 h 4.1 v -13.7 c 0,-0.8 0,-1.4 0.3,-2 0.7,-2.2 2.9,-4.1 5.5,-4.1 3.9,0 5.2,3.1 5.2,6.7 v 13 h 4.1 v -13.5 c 0,-7.8 -4.9,-9.7 -7.9,-9.7 -1.5,0 -3,0.5 -4.2,1.2 -1.3,0.7 -2.3,1.7 -2.9,2.9 h -0.1 v -14.1 h -4.1 z m 44.9,-22.6 h -4.1 v 13.9 c 0,0.7 -0.1,1.5 -0.4,2.1 -0.7,1.8 -2.7,3.7 -5.4,3.7 -3.7,0 -5.1,-2.9 -5.1,-7.2 v -12.5 h -4.1 v 13.2 c 0,7.9 4.3,9.9 7.8,9.9 4,0 6.4,-2.4 7.5,-4.2 h 0.1 l 0.2,3.7 h 3.6 c -0.1,-1.8 -0.2,-3.8 -0.2,-6.2 v -16.4 z m 10.2,22.6 0.2,-3.7 h 0.1 c 1.7,3 4.3,4.3 7.6,4.3 5.1,0 10.1,-4 10.1,-12.1 0,-6.9 -3.9,-11.5 -9.5,-11.5 -3.6,0 -6.3,1.6 -7.7,4.2 h -0.1 v -14.2 h -4.1 v 27.4 c 0,2 -0.1,4.3 -0.2,5.8 h 3.6 z m 0.7,-13.1 c 0,-0.7 0.1,-1.2 0.2,-1.7 0.8,-3.1 3.5,-5.1 6.3,-5.1 4.4,0 6.7,3.9 6.7,8.4 0,5.2 -2.6,8.7 -6.9,8.7 -3,0 -5.4,-2 -6.2,-4.8 -0.1,-0.5 -0.2,-1 -0.2,-1.5 v -4 z" />
            </g>
          </g>
        </g>
      </g>
    </g>
  </g>
</svg>
